<svg width="25" height="24" viewBox="0 0 25 24" fill="none" xmlns="http://www.w3.org/2000/svg">
<path fill-rule="evenodd" clip-rule="evenodd" d="M8.28408 14.793C11.8789 14.793 14.793 11.8789 14.793 8.28408C14.793 4.6893 11.8789 1.77516 8.28408 1.77516C4.6893 1.77516 1.77516 4.6893 1.77516 8.28408C1.77516 11.8789 4.6893 14.793 8.28408 14.793ZM8.28408 16.5682C12.8593 16.5682 16.5682 12.8593 16.5682 8.28408C16.5682 3.70891 12.8593 0 8.28408 0C3.70891 0 0 3.70891 0 8.28408C0 12.8593 3.70891 16.5682 8.28408 16.5682Z" fill="#F8F8F8"/>
<path fill-rule="evenodd" clip-rule="evenodd" d="M21.4734 18.1286L17.1645 13.8198C16.5567 13.2119 15.5712 13.2119 14.9634 13.8198C14.3556 14.4276 14.3556 15.413 14.9634 16.0208L19.2723 20.3297C19.8801 20.9375 20.8655 20.9375 21.4734 20.3297C22.0812 19.7219 22.0812 18.7364 21.4734 18.1286ZM18.3776 12.6067C17.0998 11.3289 15.0281 11.3289 13.7504 12.6067C12.4726 13.8845 12.4726 15.9561 13.7504 17.2339L18.0592 21.5427C19.337 22.8205 21.4086 22.8205 22.6864 21.5427C23.9642 20.265 23.9642 18.1933 22.6864 16.9155L18.3776 12.6067Z" fill="#F8F8F8"/>
</svg>
